<svg width="626" height="680" viewBox="0 0 626 680" fill="none" xmlns="http://www.w3.org/2000/svg">
<rect width="304" height="513" rx="20" fill="#FF5D44"/>
<path d="M533.613 12.2152C536.742 4.81157 543.998 0 552.036 0H606C617.046 0 626 8.9543 626 20V493C626 504.046 617.046 513 606 513H352.164C337.849 513 328.169 498.401 333.741 485.215L533.613 12.2152Z" fill="#FF5D44"/>
<path d="M0 583.041C0 570.537 11.3448 561.1 23.6396 563.375L312.328 616.803C314.756 617.253 317.248 617.248 319.675 616.79L602.292 563.473C614.607 561.149 626 570.594 626 583.126V660C626 671.046 617.046 680 606 680H20C8.95429 680 0 671.046 0 660V583.041Z" fill="#FF5D44"/>
<path d="M565 358C565 385.614 542.614 408 515 408C487.386 408 465 385.614 465 358C465 330.386 487.386 344.5 515 344.5C542.614 344.5 565 330.386 565 358Z" fill="#161616"/>
<path d="M202 358.107C202 385.721 179.614 408.107 152 408.107C124.386 408.107 102 385.721 102 358.107C102 330.492 124.386 344.607 152 344.607C179.614 344.607 202 330.492 202 358.107Z" fill="#161616"/>
</svg>
